<?xml version="1.0" encoding="UTF-8"?>
<svg id="Calque_2" xmlns="http://www.w3.org/2000/svg" viewBox="0 0 601.64 459.76">
  <defs>
    <style>
      .cls-1 {
        fill: #c8e3df;
      }
    </style>
  </defs>
  <g id="Calque_1-2" data-name="Calque_1">
    <g>
      <path class="cls-1" d="M422.46,2.53c-.6,1.6-1.81,5.42-2.51,8.42-2.01,7.62-3.91,14.54-5.92,21.06-.9,3.01-2.21,8.02-3.01,11.03-.7,3.01-2.21,8.93-3.31,13.14-1.7,6.12-2.01,10.63-2.01,24.37,0,9.33-.4,17.25-.9,17.65-.4.5-1.91,1-3.31,1.2-2.41.3-2.51.6-2.81,8.02-.3,7.22,0,8.22,3.41,15.04l3.71,7.32v21.12s-.23,24.5-3.33,24.1c-3.3-.4-3.6.2-3.6,7.8,0,6.9.4,8.6,3.5,14.5l4.43,6.8v16.7s-.33,17.5.77,19.6c.7,1.5,1.8,2.5,2.3,2.2.6-.4.93-19.4.93-19.4v-18.42l-4-8c-2.7-5.3-4-9.3-4-12,0-4.2,1-5.2,5.6-5.2h2.4v-49.8l-4-8.1c-2.6-5.3-4-9.4-4-12.1,0-3.5.3-4,2.8-4.6,1.5-.3,3.3-.7,4-1,.9-.2,1.2-5.4,1.2-21.3,0-11.6.4-22,.9-23.3s2.6-8.8,4.6-16.8c4.2-16.4,5.9-21,7.8-21,.9,0,3.2,6.4,6.8,19.2l5.4,19.3.5,22,.5,22,3.5.5c3.3.5,3.5.8,3.8,4.6.2,3.1-.7,6-3.8,12.4l-4,8.4v49.6h2.47s5.6.52,5.6,4.62c0,3.7-3.7,12.8-7.3,18-1.5,2.1-1.7,6.8-1.7,42.4s.2,40.5,1.8,44.8c1,2.6,2.1,4.4,2.5,4.1.4-.4.7-20.1.63-43.9v-43.1l4.27-8.4c3.3-6.7,4.3-9.9,4.6-15,.4-7.3-.3-8.6-5.3-9.2l-3.57-.3v-21.1l-.2-21.01,4.51-9.33c4.21-8.62,4.61-9.93,4.31-15.95-.3-6.42-.3-6.52-3.31-6.82-5.21-.5-5.52-1.91-5.52-21.66,0-10.13-.5-19.76-1.1-21.66s-1.7-5.82-2.41-8.52c-.7-2.81-2.01-7.62-2.91-10.83-1.7-6.12-2.81-10.43-7.02-26.28-1.5-5.52-2.91-10.13-3.11-10.43-.3-.2-1,.9-1.6,2.51Z"/>
      <path class="cls-1" d="M197.21,54.81c-1.2,4.4-1.9,10.5-2,17.3-.1,10.4-.2,10.8-8.8,36.5-4.7,14.3-9.6,28.9-10.7,32.5-5.2,16.3-5.8,17.6-9.2,18.6-2.6.7-3.3,1.5-3.5,4-.2,1.9.3,3.6,1.2,4.4,1.1.8,1.6,2.9,1.6,6.1,0,4.3-.3,5.1-2.5,6.1l-2.5,1.1v55.3c0,56.7,0,56.2,3.2,54,.1,0,.5-23.5.8-52.1l.5-52,2.8-1.3c2.6-1.3,2.7-1.5,2.7-10.3,0-6,.5-9.7,1.4-11.2,1.6-2.5,2.5-5,16.2-47.2,5.3-16.5,9.8-30.2,10-30.3.9-1.2,4.5,1.4,5,3.6.4,1.5,4.6,14.6,9.4,29.2s9.9,30.3,11.4,34.8c1.4,4.6,3.3,9.4,4.1,10.5,1.1,1.5,1.5,4.8,1.5,10.9,0,8.5.1,8.9,2.5,9.8,2.5.9,2.5,1.1,2.5,12.5,0,10.8.1,11.5,2,11.5,2.7,0,3.1-2.4,2.8-16.5-.3-11.8-.3-11.9-2.8-12.5-2.1-.5-2.5-1.2-2.8-4.9-.2-2.7.3-5.2,1.3-6.7.9-1.4,1.5-3.9,1.3-5.7-.2-2.6-.8-3.3-2.9-3.5-3.2-.4-2.5,1.5-18.4-46.7-9.9-29.9-11.4-35.3-10.4-37.1,1.2-2.2,1.1-3.7-1-15.3-1-5.5-3.5-12.1-4.5-12.1-.2,0-1.1,3-2.2,6.7Z"/>
      <path class="cls-1" d="M353.48,89.31c-1,4-2.2,8.9-2.6,10.8-.5,1.9-1.8,6.6-2.9,10.5-1.4,4.7-2.1,10-2.1,16.1,0,7.8-.3,9.3-2,10.9-2.5,2.3-2.7,8.4-.2,12.8,1.4,2.7,1.8,6.8,2.2,26.5.7,30.5,2.4,31.3,2.8,1.1.2-20.3.1-22.4-1.8-26.6-2.6-5.9-2.6-9.9,0-11.3,1.8-1,2-2.1,2-12.3.1-10.5.6-13.8,4.3-26.9,1.5-5.6,2-6.2,4.4-5.4,1.3.4,2.2,2.3,3.1,6.3.7,3.2,1.6,7.6,2.2,9.8.5,2.2.9,9.5,1,16.1,0,12.1,0,12.2,2.5,12.8,3.2.8,3.2,3.6,0,10.1-2.4,4.9-2.4,5.4-2.5,31.8,0,21.1.3,26.8,1.3,26.5.9-.4,1.3-7.1,1.7-27.4.5-25.3.6-27.2,2.8-31.6,2.9-6.1,2.8-9.2-.4-12.2-2.5-2.3-2.6-2.9-2.5-11.2.1-5.2-.5-11.4-1.4-14.9-.9-3.3-2-7.9-2.5-10.2-2-9.3-5.5-19.3-6.8-19.3-.4,0-1.6,3.3-2.6,7.2Z"/>
      <path class="cls-1" d="M281.88,97.11c-13.6.9-29.9,3.2-43,6-5.2,1.2-11,2.3-12.7,2.7-4,.7-6.1,2.9-4.5,4.5.8.8,2.8.7,7.4-.5,15-3.8,24.6-5.4,45.3-7.7,11.5-1.3,43.5-1.2,54,.2,13.7,1.7,15,1.6,15-.7,0-1.7-1.1-2.1-9-3.1-12.3-1.7-38.5-2.4-52.5-1.4Z"/>
      <path class="cls-1" d="M371.38,106.21c-1.1,1.6,1.7,3.9,6.1,5.1,9.6,2.5,13.4,3.1,14.1,2.4,1.7-1.7-1.7-4-8.7-5.7-4.1-1.1-8.2-2.2-9.2-2.5-.9-.2-1.9,0-2.3.7Z"/>
      <path class="cls-1" d="M158.31,131.91C89.61,167.81,35.71,233.81,12.41,310.61c-4.9,16.2-5.3,17.9-7.5,30-1.2,6.6-2.7,14.2-3.3,17-1.6,7.3-2.2,59.1-.9,70,1.3,10.4,3.3,22.1,5,28.3,1,3.5,1.6,4.2,2.9,3.7,1.8-.7,8.6-1.5,32.7-4,41.9-4.4,68.3-6.7,99-8.5,9.4-.5,24.4-1.4,33.5-2,32-2,112.2-3.2,161-2.5,76.2,1,133,4,194.5,10,27,2.6,43.8,4.3,54.3,5.5,5.8.7,10.8.8,11.2.4,1.4-1.4,4-18.1,6-38.4,1.9-18.7.4-52.6-3-71.5-2-10.8-4.2-20.9-5.7-26.5-2.4-9.1-8.5-28.4-9.3-29.5-.3-.6-1.5-3.3-2.5-6-1.7-4.8-3.5-8.9-9.1-21.1-3.8-8.2-16.7-30.5-23.1-39.8-12-17.4-32-39.8-49.3-55.2-14.8-13.3-45.7-34.3-48-32.9-1.8,1.1-1,3.4,1.8,5.2,4.3,2.7,21.3,13.9,25.9,17.1,7.9,5.5,20.8,16.6,30.4,26.2,48.4,48.4,77.8,108.6,86.5,177,2.4,19,2.2,50.6-.5,70.8-1.1,8.3-2.5,16.1-3.1,17.2-1.2,2.2-5.3,2.7-9.2,1-1.3-.5-4.8-1.4-7.8-2s-6.2-1.5-7-2c-1.3-.8-1.6-11.2-2-80.2l-.5-79.3-5,7c-19.3,27.1-49.5,50.2-87,66.5-2.7,1.2-6.3,2.7-8,3.5-6.3,2.8-30.1,10.9-38.5,13.1-23.5,6.3-25.1,6.2-18.4-1.1,2-2.2,5.2-7.4,7.2-11.5,9.9-21,2-47.5-17.6-59.4-8.9-5.4-15.8-7-27.8-6.3-8.9.4-11,.9-16.8,3.7-8.2,4.1-14.3,9.4-18.8,16.2-5.4,8.4-7,13.3-7.5,24.3-.4,8.5-.2,11,1.6,16.4,3.9,11.4,11.2,20.7,20,25.3,4.2,2.3,7.1,5.2,6.1,6.2-.3.2-8.3,1.2-17.8,2-20,1.8-51.7,2.1-71.2.5-17.6-1.4-20-1.7-20-3.2,0-.7,2.6-2.9,5.8-5,22.5-14.3,29.6-41.5,16.7-63.6-3.9-6.6-5.2-7.8-6.7-6.3-.7.7.2,3,2.7,7.1,15.8,25.6,1,58.9-28.7,64.6-17.5,3.3-38.1-6.4-45.9-21.7-11.2-21.9-2.3-48.8,19.4-58.8,10.2-4.7,16.7-5.6,26.6-3.6,9.3,1.9,12.3,1.1,7.5-2.1-2.4-1.5-4.8-1.8-15.4-1.8-12,0-12.7.1-19.1,3.2-28.7,13.9-36.9,50.3-16.5,72.9,2.5,2.9,4.6,5.7,4.6,6.2,0,1.5-2.9,1.9-6.5,1.1-20.8-5.1-46.8-13.4-59-18.9-38.8-17.5-58.8-30.6-80.1-52.7-5-5.2-10.2-11.2-11.5-13.3-1.3-2.2-2.7-4-3.1-4-.5,0-.8,34-.8,75.5v75.5l-2.2,1.4c-3,1.8-19.2,5.8-22,5.4-2-.3-2.5-1.4-4-9.3-2.6-14.4-4.1-39.2-3.4-57,1-21.4,2.3-32.5,6.5-52.5,2.6-12.2,10-36.1,14.3-46,1-2.5,2.3-5.4,2.7-6.5,7-16.7,25.2-48.4,35.3-61.5,29-37.8,62-66,98.6-84.5,6.3-3.2,11.2-6.3,11.2-7.1s0-1.7.1-2.1c.2-1.8-2.4-.8-14.6,5.5ZM381.88,304.61c18.4,4.3,29.2,15.2,33.6,34.1,1.2,5.5,1.3,8,.4,13.1-3.5,20.3-15.6,32.6-36.5,36.9-7.1,1.5-8.2,1.5-14.1,0-18.5-4.7-30.3-16.8-34.1-35.1-1.7-8.1-1.7-8.9,0-15.3,2.6-10,6.4-16.7,12.8-22.7,6.5-6,11.8-8.8,20.4-10.8,7.9-1.9,9.8-1.9,17.5-.2ZM561.21,307.71c1,2.7.7,69.4-.4,71.3-.6,1.3-3.9,2.5-10.7,4.1-5.4,1.2-14.9,3.5-21.2,5.1-8.3,2.1-11.9,2.6-13.2,1.8-1.8-.9-1.9-2.5-1.9-22.1v-21.1l3.4-3.2c1.9-1.7,6-4.9,9.2-7,3.3-2.1,11.8-9.8,18.9-17,7.2-7.3,13.5-13.3,14.1-13.4.7,0,1.5.6,1.8,1.5ZM53.71,321.41c5.8,5.7,14.3,13.1,19,16.5s10,7.4,11.8,8.8l3.3,2.6-.2,19.1c0,10.6-.5,20-1,20.9-1.1,2-2.4,1.8-14.9-1.4-4.1-1.1-9.5-2.4-12-2.9-9.4-1.9-17.5-4.1-18.7-5.1-1-.8-1.3-8.9-1.3-34.3,0-18.2.3-33.5.7-33.8,1.5-1.5,3.3-.2,13.3,9.6ZM508.71,350.71c1.4.5,1.6,5.2,1.6,42.5s-.1,41.9-1.7,42.7c-1.1.6-5.4.4-11.3-.5-10.9-1.6-27.7-3.7-43-5.4-5.8-.6-11.1-1.6-11.7-2.2-1-.7-1.3-5.9-1.3-19.7,0-10.4-.3-19.5-.6-20.4-.5-1.2-1-1.3-2.5-.5-1.8.9-1.9,2.3-1.9,20,0,16.5-.2,19-1.6,19.6-.9.3-9.1.1-18.2-.6-28.8-2.1-44.6-2.9-80.8-4.2-30.7-1.1-40.8-1-80.5.5-25,.9-49.4,2.1-54.4,2.6-4.9.5-14.8,1.1-22,1.2l-13,.3-.3-19.3c-.2-18.4-.3-19.2-2.2-19.2s-2,.7-2,18.8c0,13.6-.3,19.3-1.2,20.4-1,1.1-5.5,2-16.8,3.2-8.5,1-18.6,2.2-22.5,2.8-20.7,3-26,3.5-27.2,2.6-1.9-1.5-1.9-81.1-.1-82.6.9-.7,5.1.9,14.9,5.7,7.4,3.6,15.1,7.2,17,8s5.2,2.2,7.4,3.1c2.2,1,9.4,3.7,16,5.9,6.6,2.3,13.8,4.8,16,5.6,8.1,2.8,32.1,8.7,45.5,11.1,37.8,6.9,79.9,9.7,112,7.5,31.3-2.2,44.4-3.7,60-6.6,30.3-5.8,40.3-8.3,65.5-16.8,5-1.6,9.4-3.3,9.9-3.8.6-.5,1.6-.9,2.4-.9.7,0,3.2-.8,5.5-1.8s6.2-2.7,8.7-3.7c5.7-2.4,26.5-13,29.3-15,2.4-1.7,2.9-1.8,5.1-.9ZM50.48,387.51c2.7.8,9.2,2.3,14.4,3.5,20.7,4.6,21.7,5,22.4,8.3.8,4,.8,31.7,0,35.6-.5,2.5-1.3,3.2-3.8,3.7-1.7.3-5.1,1-7.6,1.6-2.5.5-9.7,1.8-16,3-6.3,1.1-12.7,2.4-14.2,2.9-5.6,1.8-5.8.9-5.8-30.5,0-21.7.3-28.5,1.3-28.8,2.1-.9,4.2-.7,9.3.7ZM560.68,387.31c.9.9,1.2,8.6,1.2,28.6,0,28-.5,32-3.8,30.7-.8-.3-7.4-1.7-14.6-3-23.3-4.5-28-5.6-28.8-6.8-1-1.6-1-37.8,0-39.5.9-1.3,5.2-2.5,21.7-6.2,5.5-1.2,11.1-2.6,12.5-3,6.1-2.1,10.2-2.4,11.8-.8ZM358.78,427.11c9.1.5,24.3,1.4,33.6,2,22.9,1.3,50.3,3.6,65.5,5.5,32.1,3.9,47.8,6.2,54.5,8,2.8.7,6.8,1.6,8.9,2,2.9.5,3.6.9,2.5,1.6-1.9,1.2-9.4,1.1-19.3-.1-11.1-1.4-43.2-3.7-79.6-5.7-24.8-1.4-48.1-1.7-125-1.7-85.8,0-97.9.2-132,2.3-20.6,1.2-45.4,2.9-55,3.7-30.8,2.6-32.7,2.7-34.6,1.6-1.6-.9-1.3-1.1,2.1-1.7,2.2-.3,5.1-1.1,6.5-1.7,2.4-1,9.6-2.1,33-5.3,30.5-4.2,57.5-6.7,90-8.5,10.7-.6,24.7-1.5,31-1.9,17-1.2,98.7-1.3,117.9-.1Z"/>
      <path class="cls-1" d="M356.68,312.71c-.4.3.7,3.5,2.4,7.2,8.9,19.6,11.8,25.2,13.2,25.2,2,0,2-1.8.2-5.6-.8-1.6-3.3-7-5.6-11.9-2.3-5-4.9-10.5-5.7-12.3-1.4-3-3.2-4-4.5-2.6Z"/>
      <path class="cls-1" d="M177.58,170.81c-.4.3-.7,2.6-.7,5,0,4,.2,4.4,2.3,4.1,1.7-.2,2.3-1.1,2.5-3.6.4-4.3-2.1-7.6-4.1-5.5Z"/>
      <path class="cls-1" d="M192.08,171.31c-.9,1.2-1.6,4.7-1.3,7.6.1.8,1,1.2,2.4,1,1.7-.2,2.3-1,2.5-3.9.3-4.1-1.8-6.8-3.6-4.7Z"/>
      <path class="cls-1" d="M206.18,170.81c-.8.3-1.3,2.3-1.3,5,0,4,.2,4.4,2.3,4.1,1.7-.2,2.3-1,2.5-3.9.3-3.7-1.3-6-3.5-5.2Z"/>
      <path class="cls-1" d="M219.88,171.61c-.6.8-1,2.9-.8,4.7.2,2.5.8,3.4,2.6,3.6,2,.3,2.2-.1,2.2-4.1,0-4.8-1.9-6.7-4-4.2Z"/>
      <path class="cls-1" d="M299.08,184.31c-.7.7-1.2,2-1.2,3s-1.8,2.9-4.1,4.3c-2.2,1.5-4.9,4.2-6.1,6.1-1.1,1.9-3,3.6-4.2,3.8-1.1.2-5.2,1-9.1,1.6-7.8,1.4-18.4,4.4-23.2,6.6-1.7.8-3.4,1.4-3.7,1.4-1,0-15.8,7.4-20.2,10-13.5,8.2-32.4,26-41.6,39.2-12.2,17.4-20.7,39.1-23.8,60.5-1.6,11.1-1.3,46.8.3,48.2.8.6,1.7.8,2,.4.4-.3.7-9.2.7-19.6,0-26.1,2.2-39.9,9.3-58.2,12.7-32.5,39.1-60.4,70.2-74,3.3-1.5,6.9-3.1,8-3.6,7.3-3.4,23.8-6.9,36.9-7.9,21.7-1.5,36.5.3,55.6,6.7,38.1,12.8,70.3,44.7,83.5,82.8,5.7,16.3,6.5,22.3,7.2,48.3.6,24,.6,24.3,2.7,24s2.1-.6,2-20.8c-.1-26.8-2.8-42-10.9-61.5-10.1-24.4-30.9-49-53.5-63.2-18-11.3-31.4-16.1-57.7-20.9-1.3-.3-3.4-2.2-4.8-4.4s-4.3-4.9-6.4-6c-2.9-1.4-4-2.7-4.3-4.7-.3-3-1.8-3.9-3.6-2.1ZM306.88,197.11c1.7,3.1.4,4-6.1,4-4.4,0-6.1-.4-6.5-1.5-1.1-2.7,1.6-4.5,6.7-4.5,3.8,0,5.1.4,5.9,2Z"/>
      <path class="cls-1" d="M180.28,208.51c-1,4.1-.1,7.1,2.3,7.4,2.6.4,3.8-2.5,2.8-6.8-.8-3.8-4.2-4.1-5.1-.6Z"/>
      <path class="cls-1" d="M198.38,208.41c-1.1,4.2-.2,7.2,2.1,7.5,2.6.4,3.4-1.4,2.5-5.9-.8-4.2-3.7-5.2-4.6-1.6Z"/>
      <path class="cls-1" d="M216.38,208.41c-1.1,4.2-.2,7.2,2.1,7.5,2.6.4,3.4-1.4,2.5-5.9-.8-4.2-3.7-5.2-4.6-1.6Z"/>
      <path class="cls-1" d="M250.58,261.11c-3.2,1-6.6,4.7-6.7,7.2,0,1.5.9,1.8,5.6,1.8,7,0,10.9,2.5,12.5,8.1,1.3,4,3.4,6.7,4.6,5.5.4-.3.1-2.9-.6-5.6-1.9-7.3-1-8,10-8,8.7,0,10.4-.6,9.4-3.2s-7-4.7-15.5-5.3c-4.7-.3-10.3-.8-12.5-1s-5.2,0-6.8.5Z"/>
      <path class="cls-1" d="M345.68,266.6c-3.5,1.9-5.1,4.8-5.8,10.5-.6,5,.3,4.8-11,3-12.7-1.9-38.1,1.4-58.5,7.7-4.9,1.5-5.4,2-12,12.2-3.8,5.8-11.8,18-17.7,27-5.9,9.1-10.8,17.2-10.8,18.2,0,.9.6,2.2,1.3,2.8,1.9,1.5,27,7,32.5,7.1,3.8,0,2.6-2.8-1.5-3.5-2.1-.4-5.1-1-6.8-1.5-1.6-.4-6.5-1.6-10.8-2.6-4.2-.9-8.2-2.3-8.8-3-.8-1,1.6-5.3,9.7-17.6,5.9-9,12.2-18.7,14.1-21.6,3.7-5.7,5.7-7.1,8.1-5.6,1.7,1.1,3.3,5.4,10.2,27.4,6.1,19.5,6.6,21,8,21,1,0,1.4-1.3,1.1-4-.1-.8-3.6-12-7.7-24.8s-7.4-24.3-7.2-25.5c.4-2.6,3.5-3.8,17.2-6.7,22.4-4.8,42.1-4.7,47.2.1,4.9,4.6,4,6.6-14.8,30-30,37.3-31.3,38.8-33,39.4-1,.4-3.4.1-5.3-.6-3.9-1.4-5.5-.7-3.9,1.9,1.2,1.8,8.8,3.6,11.4,2.6,1.4-.5,9.4-10.2,39.5-48,6.6-8.3,12.9-15.7,13.9-16.4,1.7-1.1,2.3-.9,4.1,1.4,2.2,2.8,4.5,3.4,4.5,1.3,0-.7-1.1-3.5-2.4-6.3-5.4-11.3-5.9-12.8-5.9-15.6,0-5.4,3.1-7.3,13.4-7.7,10.7-.4,13.5.2,14.4,3,1,3-3.2,8.6-7.8,10.4-2.7,1.1-3.7,2.1-3.5,3.3.5,2.4,4.5,1.7,8.8-1.7,4.5-3.5,8.2-10.5,7.8-15.1l-.3-3.5-14.5-.2c-11.3-.2-15.1.1-17.2,1.2Z"/>
    </g>
  </g>
</svg>