<?xml version="1.0" encoding="UTF-8" standalone="no" ?>
<!DOCTYPE svg PUBLIC "-//W3C//DTD SVG 1.1//EN" "http://www.w3.org/Graphics/SVG/1.1/DTD/svg11.dtd">
<svg xmlns="http://www.w3.org/2000/svg" xmlns:xlink="http://www.w3.org/1999/xlink" version="1.1" width="1080" height="1080" viewBox="0 0 1080 1080" xml:space="preserve">
<desc>Created with Fabric.js 5.2.4</desc>
<defs>
</defs>
<g transform="matrix(Infinity NaN NaN Infinity 0 0)" id="0644dd05-b76c-4301-b6ef-47a2f9424f7f"  >
</g>
<g transform="matrix(1 0 0 1 540 540)" id="6f4f01b0-6e08-4a6a-a60d-0da6daf1c494"  >
<rect style="stroke: none; stroke-width: 1; stroke-dasharray: none; stroke-linecap: butt; stroke-dashoffset: 0; stroke-linejoin: miter; stroke-miterlimit: 4; fill: rgb(255,255,255); fill-rule: nonzero; opacity: 1; visibility: hidden;" vector-effect="non-scaling-stroke"  x="-540" y="-540" rx="0" ry="0" width="1080" height="1080" />
</g>
<g transform="matrix(14.85 0 0 14.85 540 540)" id="4556d3c5-dbab-4db3-bbd0-93c8ab1652a2"  >
<circle style="stroke: rgb(0,0,0); stroke-width: 0; stroke-dasharray: none; stroke-linecap: butt; stroke-dashoffset: 0; stroke-linejoin: miter; stroke-miterlimit: 4; fill: rgb(200,227,223); fill-rule: nonzero; opacity: 1;" vector-effect="non-scaling-stroke"  cx="0" cy="0" r="35" />
</g>
<g transform="matrix(0 0 NaN NaN 588.96 0)"  >
<g style=""   >
</g>
</g>
<g transform="matrix(1.57 0 0 1.57 540 397.97)"  >
<g style="" vector-effect="non-scaling-stroke"   >
		<g transform="matrix(1 0 0 1 123.36 -83.11)"  >
<path style="stroke: none; stroke-width: 1; stroke-dasharray: none; stroke-linecap: butt; stroke-dashoffset: 0; stroke-linejoin: miter; stroke-miterlimit: 4; fill: rgb(29,105,109); fill-rule: nonzero; opacity: 1;" vector-effect="non-scaling-stroke"  transform=" translate(-424.18, -146.76)" d="M 422.46 2.53 C 421.85999999999996 4.13 420.65 7.949999999999999 419.95 10.95 C 417.94 18.57 416.03999999999996 25.49 414.03 32.01 C 413.13 35.019999999999996 411.82 40.03 411.02 43.04 C 410.32 46.05 408.81 51.97 407.71 56.18 C 406.01 62.3 405.7 66.81 405.7 80.55 C 405.7 89.88 405.3 97.8 404.8 98.19999999999999 C 404.40000000000003 98.69999999999999 402.89 99.19999999999999 401.49 99.39999999999999 C 399.08 99.69999999999999 398.98 99.99999999999999 398.68 107.41999999999999 C 398.38 114.63999999999999 398.68 115.63999999999999 402.09000000000003 122.45999999999998 L 405.8 129.77999999999997 L 405.8 150.89999999999998 C 405.8 150.89999999999998 405.57 175.39999999999998 402.47 174.99999999999997 C 399.17 174.59999999999997 398.87 175.19999999999996 398.87 182.79999999999998 C 398.87 189.7 399.27 191.39999999999998 402.37 197.29999999999998 L 406.8 204.1 L 406.8 220.79999999999998 C 406.8 220.79999999999998 406.47 238.29999999999998 407.57 240.39999999999998 C 408.27 241.89999999999998 409.37 242.89999999999998 409.87 242.59999999999997 C 410.47 242.19999999999996 410.8 223.19999999999996 410.8 223.19999999999996 L 410.8 204.77999999999997 L 406.8 196.77999999999997 C 404.1 191.47999999999996 402.8 187.47999999999996 402.8 184.77999999999997 C 402.8 180.57999999999998 403.8 179.57999999999998 408.40000000000003 179.57999999999998 L 410.8 179.57999999999998 L 410.8 129.77999999999997 L 406.8 121.67999999999998 C 404.2 116.37999999999998 402.8 112.27999999999997 402.8 109.57999999999998 C 402.8 106.07999999999998 403.1 105.57999999999998 405.6 104.97999999999999 C 407.1 104.67999999999999 408.90000000000003 104.27999999999999 409.6 103.97999999999999 C 410.5 103.77999999999999 410.8 98.57999999999998 410.8 82.67999999999999 C 410.8 71.08 411.2 60.67999999999999 411.7 59.379999999999995 C 412.2 58.08 414.3 50.58 416.3 42.58 C 420.5 26.18 422.2 21.58 424.1 21.58 C 425 21.58 427.3 27.979999999999997 430.90000000000003 40.78 L 436.3 60.08 L 436.8 82.08 L 437.3 104.08 L 440.8 104.58 C 444.1 105.08 444.3 105.38 444.6 109.17999999999999 C 444.8 112.27999999999999 443.90000000000003 115.17999999999999 440.8 121.58 L 436.8 129.98 L 436.8 179.57999999999998 L 439.27000000000004 179.57999999999998 C 439.27000000000004 179.57999999999998 444.87000000000006 180.1 444.87000000000006 184.2 C 444.87000000000006 187.89999999999998 441.1700000000001 197 437.57000000000005 202.2 C 436.07000000000005 204.29999999999998 435.87000000000006 209 435.87000000000006 244.6 C 435.87000000000006 280.2 436.07000000000005 285.1 437.6700000000001 289.4 C 438.6700000000001 292 439.7700000000001 293.79999999999995 440.1700000000001 293.5 C 440.57000000000005 293.1 440.87000000000006 273.4 440.80000000000007 249.6 L 440.80000000000007 206.5 L 445.07000000000005 198.1 C 448.37000000000006 191.4 449.37000000000006 188.2 449.6700000000001 183.1 C 450.07000000000005 175.79999999999998 449.37000000000006 174.5 444.37000000000006 173.9 L 440.80000000000007 173.6 L 440.80000000000007 152.5 L 440.6000000000001 131.49 L 445.11000000000007 122.16000000000001 C 449.32000000000005 113.54 449.7200000000001 112.23000000000002 449.4200000000001 106.21000000000001 C 449.12000000000006 99.79 449.12000000000006 99.69000000000001 446.11000000000007 99.39000000000001 C 440.9000000000001 98.89000000000001 440.5900000000001 97.48000000000002 440.5900000000001 77.73000000000002 C 440.5900000000001 67.60000000000002 440.0900000000001 57.97000000000001 439.49000000000007 56.07000000000002 C 438.89000000000004 54.17000000000003 437.7900000000001 50.25000000000002 437.08000000000004 47.550000000000026 C 436.38000000000005 44.74000000000002 435.07000000000005 39.93000000000003 434.17 36.72000000000003 C 432.47 30.600000000000026 431.36 26.290000000000028 427.15000000000003 10.440000000000026 C 425.65000000000003 4.920000000000027 424.24 0.31000000000002537 424.04 0.010000000000026432 C 423.74 -0.18999999999997358 423.04 0.9100000000000265 422.44 2.520000000000026 Z" stroke-linecap="round" />
</g>
		<g transform="matrix(1 0 0 1 -100.57 -60.11)"  >
<path style="stroke: none; stroke-width: 1; stroke-dasharray: none; stroke-linecap: butt; stroke-dashoffset: 0; stroke-linejoin: miter; stroke-miterlimit: 4; fill: rgb(29,105,109); fill-rule: nonzero; opacity: 1;" vector-effect="non-scaling-stroke"  transform=" translate(-200.25, -169.76)" d="M 197.21 54.81 C 196.01000000000002 59.21 195.31 65.31 195.21 72.11 C 195.11 82.51 195.01000000000002 82.91 186.41 108.61 C 181.71 122.91 176.81 137.51 175.71 141.11 C 170.51000000000002 157.41000000000003 169.91 158.71 166.51000000000002 159.71 C 163.91000000000003 160.41 163.21 161.21 163.01000000000002 163.71 C 162.81000000000003 165.61 163.31000000000003 167.31 164.21 168.11 C 165.31 168.91000000000003 165.81 171.01000000000002 165.81 174.21 C 165.81 178.51000000000002 165.51 179.31 163.31 180.31 L 160.81 181.41 L 160.81 236.70999999999998 C 160.81 293.40999999999997 160.81 292.90999999999997 164.01 290.71 C 164.10999999999999 290.71 164.51 267.21 164.81 238.60999999999999 L 165.31 186.60999999999999 L 168.11 185.30999999999997 C 170.71 184.00999999999996 170.81 183.80999999999997 170.81 175.00999999999996 C 170.81 169.00999999999996 171.31 165.30999999999997 172.21 163.80999999999997 C 173.81 161.30999999999997 174.71 158.80999999999997 188.41 116.60999999999997 C 193.71 100.10999999999997 198.21 86.40999999999997 198.41 86.30999999999997 C 199.31 85.10999999999997 202.91 87.70999999999998 203.41 89.90999999999997 C 203.81 91.40999999999997 208.01 104.50999999999996 212.81 119.10999999999997 C 217.61 133.70999999999998 222.71 149.40999999999997 224.21 153.90999999999997 C 225.61 158.50999999999996 227.51000000000002 163.30999999999997 228.31 164.40999999999997 C 229.41 165.90999999999997 229.81 169.20999999999998 229.81 175.30999999999997 C 229.81 183.80999999999997 229.91 184.20999999999998 232.31 185.10999999999999 C 234.81 186.01 234.81 186.20999999999998 234.81 197.60999999999999 C 234.81 208.41 234.91 209.10999999999999 236.81 209.10999999999999 C 239.51 209.10999999999999 239.91 206.70999999999998 239.61 192.60999999999999 C 239.31 180.80999999999997 239.31 180.70999999999998 236.81 180.10999999999999 C 234.71 179.60999999999999 234.31 178.91 234.01 175.20999999999998 C 233.81 172.51 234.31 170.01 235.31 168.51 C 236.21 167.10999999999999 236.81 164.60999999999999 236.61 162.81 C 236.41000000000003 160.21 235.81 159.51 233.71 159.31 C 230.51000000000002 158.91 231.21 160.81 215.31 112.61 C 205.41 82.71000000000001 203.91 77.31 204.91 75.50999999999999 C 206.10999999999999 73.30999999999999 206.01 71.80999999999999 203.91 60.209999999999994 C 202.91 54.709999999999994 200.41 48.10999999999999 199.41 48.10999999999999 C 199.21 48.10999999999999 198.31 51.10999999999999 197.21 54.809999999999995 Z" stroke-linecap="round" />
</g>
		<g transform="matrix(1 0 0 1 56.01 -84.35)"  >
<path style="stroke: none; stroke-width: 1; stroke-dasharray: none; stroke-linecap: butt; stroke-dashoffset: 0; stroke-linejoin: miter; stroke-miterlimit: 4; fill: rgb(29,105,109); fill-rule: nonzero; opacity: 1;" vector-effect="non-scaling-stroke"  transform=" translate(-356.84, -145.52)" d="M 353.48 89.31 C 352.48 93.31 351.28000000000003 98.21000000000001 350.88 100.11 C 350.38 102.01 349.08 106.71 347.98 110.61 C 346.58000000000004 115.31 345.88 120.61 345.88 126.71000000000001 C 345.88 134.51000000000002 345.58 136.01000000000002 343.88 137.61 C 341.38 139.91000000000003 341.18 146.01000000000002 343.68 150.41000000000003 C 345.08 153.11 345.48 157.21000000000004 345.88 176.91000000000003 C 346.58 207.41000000000003 348.28 208.21000000000004 348.68 178.01000000000002 C 348.88 157.71 348.78000000000003 155.61 346.88 151.41000000000003 C 344.28 145.51000000000002 344.28 141.51000000000002 346.88 140.11 C 348.68 139.11 348.88 138.01000000000002 348.88 127.81000000000002 C 348.98 117.31000000000002 349.48 114.01000000000002 353.18 100.91000000000003 C 354.68 95.31000000000003 355.18 94.71000000000002 357.58 95.51000000000002 C 358.88 95.91000000000003 359.78 97.81000000000002 360.68 101.81000000000002 C 361.38 105.01000000000002 362.28000000000003 109.41000000000001 362.88 111.61000000000001 C 363.38 113.81000000000002 363.78 121.11000000000001 363.88 127.71000000000001 C 363.88 139.81 363.88 139.91 366.38 140.51000000000002 C 369.58 141.31000000000003 369.58 144.11 366.38 150.61 C 363.98 155.51000000000002 363.98 156.01000000000002 363.88 182.41000000000003 C 363.88 203.51000000000002 364.18 209.21000000000004 365.18 208.91000000000003 C 366.08 208.51000000000002 366.48 201.81000000000003 366.88 181.51000000000002 C 367.38 156.21 367.48 154.31000000000003 369.68 149.91000000000003 C 372.58 143.81000000000003 372.48 140.71000000000004 369.28000000000003 137.71000000000004 C 366.78000000000003 135.41000000000003 366.68 134.81000000000003 366.78000000000003 126.51000000000003 C 366.88000000000005 121.31000000000003 366.28000000000003 115.11000000000003 365.38000000000005 111.61000000000003 C 364.4800000000001 108.31000000000003 363.38000000000005 103.71000000000002 362.88000000000005 101.41000000000003 C 360.88000000000005 92.11000000000003 357.38000000000005 82.11000000000003 356.08000000000004 82.11000000000003 C 355.68000000000006 82.11000000000003 354.48 85.41000000000003 353.48 89.31000000000003 Z" stroke-linecap="round" />
</g>
		<g transform="matrix(1 0 0 1 -18.56 -126.13)"  >
<path style="stroke: none; stroke-width: 1; stroke-dasharray: none; stroke-linecap: butt; stroke-dashoffset: 0; stroke-linejoin: miter; stroke-miterlimit: 4; fill: rgb(29,105,109); fill-rule: nonzero; opacity: 1;" vector-effect="non-scaling-stroke"  transform=" translate(-282.26, -103.74)" d="M 281.88 97.11 C 268.28 98.01 251.98 100.31 238.88 103.11 C 233.68 104.31 227.88 105.41 226.18 105.81 C 222.18 106.51 220.08 108.71000000000001 221.68 110.31 C 222.48000000000002 111.11 224.48000000000002 111.01 229.08 109.81 C 244.08 106.01 253.68 104.41 274.38 102.11 C 285.88 100.81 317.88 100.91 328.38 102.31 C 342.08 104.01 343.38 103.91 343.38 101.61 C 343.38 99.91 342.28 99.51 334.38 98.51 C 322.08 96.81 295.88 96.11 281.88 97.11 Z" stroke-linecap="round" />
</g>
		<g transform="matrix(1 0 0 1 80.76 -120.16)"  >
<path style="stroke: none; stroke-width: 1; stroke-dasharray: none; stroke-linecap: butt; stroke-dashoffset: 0; stroke-linejoin: miter; stroke-miterlimit: 4; fill: rgb(29,105,109); fill-rule: nonzero; opacity: 1;" vector-effect="non-scaling-stroke"  transform=" translate(-381.58, -109.71)" d="M 371.38 106.21 C 370.28 107.80999999999999 373.08 110.11 377.48 111.30999999999999 C 387.08000000000004 113.80999999999999 390.88 114.40999999999998 391.58000000000004 113.71 C 393.28000000000003 112.00999999999999 389.88000000000005 109.71 382.88000000000005 108.00999999999999 C 378.78000000000003 106.91 374.68000000000006 105.80999999999999 373.68000000000006 105.50999999999999 C 372.7800000000001 105.30999999999999 371.7800000000001 105.50999999999999 371.38000000000005 106.21 Z" stroke-linecap="round" />
</g>
		<g transform="matrix(1 0 0 1 0 62.81)"  >
<path style="stroke: none; stroke-width: 1; stroke-dasharray: none; stroke-linecap: butt; stroke-dashoffset: 0; stroke-linejoin: miter; stroke-miterlimit: 4; fill: rgb(29,105,109); fill-rule: nonzero; opacity: 1;" vector-effect="non-scaling-stroke"  transform=" translate(-300.82, -292.68)" d="M 158.31 131.91 C 89.61 167.81 35.71 233.81 12.41 310.61 C 7.51 326.81 7.11 328.51 4.91 340.61 C 3.71 347.21000000000004 2.21 354.81 1.6100000000000003 357.61 C 0.010000000000000231 364.91 -0.5899999999999999 416.71000000000004 0.7100000000000003 427.61 C 2.0100000000000002 438.01 4.01 449.71000000000004 5.71 455.91 C 6.71 459.41 7.3100000000000005 460.11 8.61 459.61 C 10.41 458.91 17.21 458.11 41.31 455.61 C 83.21000000000001 451.21000000000004 109.61 448.91 140.31 447.11 C 149.71 446.61 164.71 445.71000000000004 173.81 445.11 C 205.81 443.11 286.01 441.91 334.81 442.61 C 411.01 443.61 467.81 446.61 529.31 452.61 C 556.31 455.21000000000004 573.1099999999999 456.91 583.6099999999999 458.11 C 589.4099999999999 458.81 594.4099999999999 458.91 594.81 458.51 C 596.2099999999999 457.11 598.81 440.40999999999997 600.81 420.11 C 602.7099999999999 401.41 601.2099999999999 367.51 597.81 348.61 C 595.81 337.81 593.6099999999999 327.71000000000004 592.1099999999999 322.11 C 589.7099999999999 313.01 583.6099999999999 293.71000000000004 582.81 292.61 C 582.51 292.01 581.31 289.31 580.31 286.61 C 578.6099999999999 281.81 576.81 277.71000000000004 571.2099999999999 265.51 C 567.41 257.31 554.5099999999999 235.01 548.1099999999999 225.70999999999998 C 536.1099999999999 208.30999999999997 516.1099999999999 185.90999999999997 498.8099999999999 170.51 C 484.0099999999999 157.20999999999998 453.1099999999999 136.20999999999998 450.8099999999999 137.60999999999999 C 449.0099999999999 138.70999999999998 449.8099999999999 141.01 452.6099999999999 142.80999999999997 C 456.9099999999999 145.50999999999996 473.9099999999999 156.70999999999998 478.5099999999999 159.90999999999997 C 486.40999999999985 165.40999999999997 499.3099999999999 176.50999999999996 508.90999999999985 186.10999999999996 C 557.3099999999998 234.50999999999996 586.7099999999998 294.7099999999999 595.4099999999999 363.10999999999996 C 597.8099999999998 382.10999999999996 597.6099999999999 413.71 594.9099999999999 433.90999999999997 C 593.8099999999998 442.21 592.4099999999999 450.01 591.8099999999998 451.10999999999996 C 590.6099999999998 453.30999999999995 586.5099999999999 453.80999999999995 582.6099999999998 452.10999999999996 C 581.3099999999998 451.60999999999996 577.8099999999998 450.71 574.8099999999998 450.10999999999996 C 571.8099999999998 449.50999999999993 568.6099999999998 448.60999999999996 567.8099999999998 448.10999999999996 C 566.5099999999999 447.30999999999995 566.2099999999998 436.90999999999997 565.8099999999998 367.90999999999997 L 565.3099999999998 288.60999999999996 L 560.3099999999998 295.60999999999996 C 541.0099999999999 322.71 510.80999999999983 345.80999999999995 473.30999999999983 362.10999999999996 C 470.60999999999984 363.30999999999995 467.0099999999998 364.80999999999995 465.30999999999983 365.60999999999996 C 459.0099999999998 368.40999999999997 435.2099999999998 376.50999999999993 426.80999999999983 378.71 C 403.30999999999983 385.01 401.7099999999998 384.90999999999997 408.40999999999985 377.60999999999996 C 410.40999999999985 375.40999999999997 413.60999999999984 370.21 415.60999999999984 366.10999999999996 C 425.5099999999998 345.10999999999996 417.60999999999984 318.60999999999996 398.0099999999998 306.71 C 389.10999999999984 301.31 382.2099999999998 299.71 370.2099999999998 300.40999999999997 C 361.30999999999983 300.80999999999995 359.2099999999998 301.30999999999995 353.4099999999998 304.10999999999996 C 345.2099999999998 308.21 339.1099999999998 313.50999999999993 334.6099999999998 320.30999999999995 C 329.2099999999998 328.7099999999999 327.6099999999998 333.60999999999996 327.1099999999998 344.60999999999996 C 326.7099999999998 353.10999999999996 326.9099999999998 355.60999999999996 328.7099999999998 361.00999999999993 C 332.6099999999998 372.4099999999999 339.9099999999998 381.7099999999999 348.7099999999998 386.30999999999995 C 352.9099999999998 388.60999999999996 355.80999999999983 391.50999999999993 354.80999999999983 392.50999999999993 C 354.5099999999998 392.7099999999999 346.5099999999998 393.7099999999999 337.0099999999998 394.50999999999993 C 317.0099999999998 396.30999999999995 285.30999999999983 396.60999999999996 265.80999999999983 395.00999999999993 C 248.20999999999984 393.60999999999996 245.80999999999983 393.30999999999995 245.80999999999983 391.80999999999995 C 245.80999999999983 391.10999999999996 248.40999999999983 388.90999999999997 251.60999999999984 386.80999999999995 C 274.10999999999984 372.50999999999993 281.20999999999987 345.30999999999995 268.30999999999983 323.2099999999999 C 264.40999999999985 316.6099999999999 263.10999999999984 315.4099999999999 261.60999999999984 316.9099999999999 C 260.90999999999985 317.6099999999999 261.80999999999983 319.9099999999999 264.30999999999983 324.00999999999993 C 280.10999999999984 349.60999999999996 265.30999999999983 382.9099999999999 235.60999999999984 388.6099999999999 C 218.10999999999984 391.9099999999999 197.50999999999985 382.2099999999999 189.70999999999984 366.9099999999999 C 178.50999999999985 345.00999999999993 187.40999999999983 318.1099999999999 209.10999999999984 308.1099999999999 C 219.30999999999983 303.4099999999999 225.80999999999983 302.5099999999999 235.70999999999984 304.5099999999999 C 245.00999999999985 306.40999999999985 248.00999999999985 305.6099999999999 243.20999999999984 302.40999999999985 C 240.80999999999983 300.90999999999985 238.40999999999983 300.60999999999984 227.80999999999983 300.60999999999984 C 215.80999999999983 300.60999999999984 215.10999999999984 300.70999999999987 208.70999999999984 303.80999999999983 C 180.00999999999985 317.7099999999998 171.80999999999983 354.10999999999984 192.20999999999984 376.7099999999998 C 194.70999999999984 379.6099999999998 196.80999999999983 382.4099999999998 196.80999999999983 382.9099999999998 C 196.80999999999983 384.4099999999998 193.90999999999983 384.8099999999998 190.30999999999983 384.0099999999998 C 169.50999999999982 378.9099999999998 143.50999999999982 370.60999999999984 131.30999999999983 365.10999999999984 C 92.50999999999983 347.60999999999984 72.50999999999983 334.5099999999998 51.20999999999984 312.40999999999985 C 46.20999999999984 307.20999999999987 41.009999999999835 301.20999999999987 39.70999999999984 299.10999999999984 C 38.40999999999984 296.90999999999985 37.009999999999835 295.10999999999984 36.609999999999836 295.10999999999984 C 36.109999999999836 295.10999999999984 35.80999999999984 329.10999999999984 35.80999999999984 370.60999999999984 L 35.80999999999984 446.10999999999984 L 33.609999999999836 447.5099999999998 C 30.609999999999836 449.30999999999983 14.409999999999837 453.30999999999983 11.609999999999836 452.9099999999998 C 9.609999999999836 452.6099999999998 9.109999999999836 451.5099999999998 7.609999999999836 443.6099999999998 C 5.009999999999836 429.2099999999998 3.5099999999998364 404.4099999999998 4.209999999999836 386.6099999999998 C 5.209999999999836 365.2099999999998 6.5099999999998355 354.1099999999998 10.709999999999836 334.1099999999998 C 13.309999999999835 321.9099999999998 20.709999999999837 298.00999999999976 25.009999999999835 288.1099999999998 C 26.009999999999835 285.6099999999998 27.309999999999835 282.7099999999998 27.709999999999834 281.6099999999998 C 34.70999999999984 264.9099999999998 52.90999999999983 233.20999999999978 63.009999999999835 220.1099999999998 C 92.00999999999983 182.30999999999977 125.00999999999983 154.1099999999998 161.60999999999984 135.6099999999998 C 167.90999999999985 132.4099999999998 172.80999999999983 129.30999999999977 172.80999999999983 128.5099999999998 C 172.80999999999983 127.70999999999981 172.80999999999983 126.80999999999979 172.90999999999983 126.4099999999998 C 173.10999999999981 124.6099999999998 170.50999999999982 125.6099999999998 158.30999999999983 131.9099999999998 Z M 381.88 304.61 C 400.28 308.91 411.08 319.81 415.48 338.71000000000004 C 416.68 344.21000000000004 416.78000000000003 346.71000000000004 415.88 351.81000000000006 C 412.38 372.11000000000007 400.28 384.4100000000001 379.38 388.71000000000004 C 372.28 390.21000000000004 371.18 390.21000000000004 365.28 388.71000000000004 C 346.78 384.01000000000005 334.97999999999996 371.91 331.17999999999995 353.61 C 329.47999999999996 345.51 329.47999999999996 344.71000000000004 331.17999999999995 338.31 C 333.78 328.31 337.5799999999999 321.61 343.97999999999996 315.61 C 350.47999999999996 309.61 355.78 306.81 364.37999999999994 304.81 C 372.2799999999999 302.91 374.17999999999995 302.91 381.87999999999994 304.61 Z M 561.21 307.71 C 562.21 310.40999999999997 561.9100000000001 377.11 560.8100000000001 379.01 C 560.21 380.31 556.9100000000001 381.51 550.11 383.11 C 544.71 384.31 535.21 386.61 528.91 388.21000000000004 C 520.61 390.31000000000006 517.01 390.81000000000006 515.7099999999999 390.01000000000005 C 513.91 389.11000000000007 513.81 387.51000000000005 513.81 367.91 L 513.81 346.81 L 517.2099999999999 343.61 C 519.1099999999999 341.91 523.2099999999999 338.71000000000004 526.41 336.61 C 529.7099999999999 334.51 538.2099999999999 326.81 545.31 319.61 C 552.51 312.31 558.81 306.31 559.41 306.21000000000004 C 560.11 306.21000000000004 560.91 306.81000000000006 561.2099999999999 307.71000000000004 Z M 53.71 321.41 C 59.51 327.11 68.01 334.51000000000005 72.71000000000001 337.91 C 77.41000000000001 341.31 82.71000000000001 345.31 84.51 346.71000000000004 L 87.81 349.31000000000006 L 87.61 368.4100000000001 C 87.61 379.0100000000001 87.11 388.4100000000001 86.61 389.31000000000006 C 85.51 391.31000000000006 84.21 391.11000000000007 71.71 387.9100000000001 C 67.61 386.81000000000006 62.209999999999994 385.5100000000001 59.709999999999994 385.0100000000001 C 50.309999999999995 383.1100000000001 42.209999999999994 380.9100000000001 41.00999999999999 379.9100000000001 C 40.00999999999999 379.11000000000007 39.709999999999994 371.0100000000001 39.709999999999994 345.61000000000007 C 39.709999999999994 327.4100000000001 40.00999999999999 312.11000000000007 40.41 311.81000000000006 C 41.91 310.31000000000006 43.709999999999994 311.61000000000007 53.709999999999994 321.4100000000001 Z M 508.71 350.71 C 510.10999999999996 351.21 510.31 355.90999999999997 510.31 393.21 C 510.31 430.51 510.21 435.10999999999996 508.61 435.90999999999997 C 507.51 436.51 503.21000000000004 436.30999999999995 497.31 435.40999999999997 C 486.41 433.80999999999995 469.61 431.71 454.31 430.01 C 448.51 429.40999999999997 443.21 428.40999999999997 442.61 427.81 C 441.61 427.11 441.31 421.91 441.31 408.11 C 441.31 397.71000000000004 441.01 388.61 440.71 387.71000000000004 C 440.21 386.51000000000005 439.71 386.41 438.21 387.21000000000004 C 436.40999999999997 388.11 436.31 389.51000000000005 436.31 407.21000000000004 C 436.31 423.71000000000004 436.11 426.21000000000004 434.71 426.81000000000006 C 433.81 427.11000000000007 425.60999999999996 426.9100000000001 416.51 426.21000000000004 C 387.71 424.11 371.90999999999997 423.31000000000006 335.71 422.01000000000005 C 305.01 420.91 294.90999999999997 421.01000000000005 255.20999999999998 422.51000000000005 C 230.20999999999998 423.41 205.80999999999997 424.61000000000007 200.80999999999997 425.11000000000007 C 195.90999999999997 425.61000000000007 186.00999999999996 426.2100000000001 178.80999999999997 426.31000000000006 L 165.80999999999997 426.61000000000007 L 165.50999999999996 407.31000000000006 C 165.30999999999997 388.9100000000001 165.20999999999995 388.11000000000007 163.30999999999997 388.11000000000007 C 161.41 388.11000000000007 161.30999999999997 388.81000000000006 161.30999999999997 406.9100000000001 C 161.30999999999997 420.5100000000001 161.00999999999996 426.2100000000001 160.10999999999999 427.31000000000006 C 159.10999999999999 428.4100000000001 154.60999999999999 429.31000000000006 143.30999999999997 430.51000000000005 C 134.80999999999997 431.51000000000005 124.70999999999998 432.71000000000004 120.80999999999997 433.31000000000006 C 100.10999999999997 436.31000000000006 94.80999999999997 436.81000000000006 93.60999999999997 435.9100000000001 C 91.70999999999997 434.4100000000001 91.70999999999997 354.81000000000006 93.50999999999998 353.31000000000006 C 94.40999999999998 352.61000000000007 98.60999999999997 354.21000000000004 108.40999999999998 359.01000000000005 C 115.80999999999999 362.61000000000007 123.50999999999998 366.21000000000004 125.40999999999998 367.01000000000005 C 127.30999999999999 367.81000000000006 130.60999999999999 369.21000000000004 132.80999999999997 370.11000000000007 C 135.00999999999996 371.11000000000007 142.20999999999998 373.81000000000006 148.80999999999997 376.01000000000005 C 155.40999999999997 378.31000000000006 162.60999999999999 380.81000000000006 164.80999999999997 381.61000000000007 C 172.90999999999997 384.4100000000001 196.90999999999997 390.31000000000006 210.30999999999997 392.7100000000001 C 248.10999999999996 399.61000000000007 290.21 402.4100000000001 322.30999999999995 400.2100000000001 C 353.60999999999996 398.0100000000001 366.7099999999999 396.5100000000001 382.30999999999995 393.61000000000007 C 412.60999999999996 387.81000000000006 422.60999999999996 385.31000000000006 447.80999999999995 376.81000000000006 C 452.80999999999995 375.21000000000004 457.2099999999999 373.51000000000005 457.7099999999999 373.01000000000005 C 458.30999999999995 372.51000000000005 459.30999999999995 372.11000000000007 460.1099999999999 372.11000000000007 C 460.8099999999999 372.11000000000007 463.3099999999999 371.31000000000006 465.6099999999999 370.31000000000006 C 467.9099999999999 369.31000000000006 471.8099999999999 367.61000000000007 474.3099999999999 366.61000000000007 C 480.0099999999999 364.2100000000001 500.8099999999999 353.61000000000007 503.6099999999999 351.61000000000007 C 506.0099999999999 349.9100000000001 506.5099999999999 349.81000000000006 508.7099999999999 350.7100000000001 Z M 50.48 387.51 C 53.18 388.31 59.67999999999999 389.81 64.88 391.01 C 85.58 395.61 86.58 396.01 87.28 399.31 C 88.08 403.31 88.08 431.01 87.28 434.91 C 86.78 437.41 85.98 438.11 83.48 438.61 C 81.78 438.91 78.38000000000001 439.61 75.88000000000001 440.21000000000004 C 73.38000000000001 440.71000000000004 66.18 442.01000000000005 59.88000000000001 443.21000000000004 C 53.58000000000001 444.31000000000006 47.18000000000001 445.61 45.68000000000001 446.11 C 40.080000000000005 447.91 39.88000000000001 447.01 39.88000000000001 415.61 C 39.88000000000001 393.91 40.18000000000001 387.11 41.18000000000001 386.81 C 43.28000000000001 385.91 45.38000000000001 386.11 50.480000000000004 387.51 Z M 560.68 387.31 C 561.5799999999999 388.21 561.88 395.91 561.88 415.91 C 561.88 443.91 561.38 447.91 558.08 446.61 C 557.2800000000001 446.31 550.6800000000001 444.91 543.48 443.61 C 520.1800000000001 439.11 515.48 438.01 514.6800000000001 436.81 C 513.6800000000001 435.21 513.6800000000001 399.01 514.6800000000001 397.31 C 515.58 396.01 519.8800000000001 394.81 536.3800000000001 391.11 C 541.8800000000001 389.91 547.4800000000001 388.51 548.8800000000001 388.11 C 554.9800000000001 386.01 559.0800000000002 385.71000000000004 560.6800000000001 387.31 Z M 358.78 427.11 C 367.88 427.61 383.08 428.51 392.38 429.11 C 415.28 430.41 442.68 432.71000000000004 457.88 434.61 C 489.98 438.51 505.68 440.81 512.38 442.61 C 515.18 443.31 519.18 444.21000000000004 521.28 444.61 C 524.18 445.11 524.88 445.51 523.78 446.21000000000004 C 521.88 447.41 514.38 447.31000000000006 504.47999999999996 446.11 C 493.37999999999994 444.71000000000004 461.28 442.41 424.88 440.41 C 400.08 439.01000000000005 376.78 438.71000000000004 299.88 438.71000000000004 C 214.07999999999998 438.71000000000004 201.98 438.91 167.88 441.01000000000005 C 147.28 442.21000000000004 122.47999999999999 443.91 112.88 444.71000000000004 C 82.08 447.31000000000006 80.17999999999999 447.41 78.28 446.31000000000006 C 76.68 445.4100000000001 76.98 445.21000000000004 80.38 444.61000000000007 C 82.58 444.31000000000006 85.47999999999999 443.51000000000005 86.88 442.9100000000001 C 89.28 441.9100000000001 96.47999999999999 440.81000000000006 119.88 437.61000000000007 C 150.38 433.4100000000001 177.38 430.9100000000001 209.88 429.11000000000007 C 220.57999999999998 428.51000000000005 234.57999999999998 427.61000000000007 240.88 427.2100000000001 C 257.88 426.0100000000001 339.58 425.9100000000001 358.78 427.11000000000007 Z" stroke-linecap="round" />
</g>
		<g transform="matrix(1 0 0 1 64.38 98.73)"  >
<path style="stroke: none; stroke-width: 1; stroke-dasharray: none; stroke-linecap: butt; stroke-dashoffset: 0; stroke-linejoin: miter; stroke-miterlimit: 4; fill: rgb(29,105,109); fill-rule: nonzero; opacity: 1;" vector-effect="non-scaling-stroke"  transform=" translate(-365.2, -328.6)" d="M 356.68 312.71 C 356.28000000000003 313.01 357.38 316.21 359.08 319.90999999999997 C 367.97999999999996 339.51 370.88 345.10999999999996 372.28 345.10999999999996 C 374.28 345.10999999999996 374.28 343.30999999999995 372.47999999999996 339.50999999999993 C 371.67999999999995 337.9099999999999 369.17999999999995 332.50999999999993 366.87999999999994 327.60999999999996 C 364.5799999999999 322.60999999999996 361.97999999999996 317.10999999999996 361.17999999999995 315.30999999999995 C 359.78 312.30999999999995 357.97999999999996 311.30999999999995 356.67999999999995 312.7099999999999 Z" stroke-linecap="round" />
</g>
		<g transform="matrix(1 0 0 1 -121.52 -54.8)"  >
<path style="stroke: none; stroke-width: 1; stroke-dasharray: none; stroke-linecap: butt; stroke-dashoffset: 0; stroke-linejoin: miter; stroke-miterlimit: 4; fill: rgb(29,105,109); fill-rule: nonzero; opacity: 1;" vector-effect="non-scaling-stroke"  transform=" translate(-179.3, -175.07)" d="M 177.58 170.81 C 177.18 171.11 176.88000000000002 173.41 176.88000000000002 175.81 C 176.88000000000002 179.81 177.08 180.21 179.18000000000004 179.91 C 180.88000000000002 179.71 181.48000000000005 178.81 181.68000000000004 176.31 C 182.08000000000004 172.01 179.58000000000004 168.71 177.58000000000004 170.81 Z" stroke-linecap="round" />
</g>
		<g transform="matrix(1 0 0 1 -107.61 -54.6)"  >
<path style="stroke: none; stroke-width: 1; stroke-dasharray: none; stroke-linecap: butt; stroke-dashoffset: 0; stroke-linejoin: miter; stroke-miterlimit: 4; fill: rgb(29,105,109); fill-rule: nonzero; opacity: 1;" vector-effect="non-scaling-stroke"  transform=" translate(-193.21, -175.27)" d="M 192.08 171.31 C 191.18 172.51 190.48000000000002 176.01 190.78 178.91 C 190.88 179.71 191.78 180.10999999999999 193.18 179.91 C 194.88 179.71 195.48000000000002 178.91 195.68 176.01 C 195.98000000000002 171.91 193.88 169.20999999999998 192.08 171.31 Z" stroke-linecap="round" />
</g>
		<g transform="matrix(1 0 0 1 -93.52 -54.55)"  >
<path style="stroke: none; stroke-width: 1; stroke-dasharray: none; stroke-linecap: butt; stroke-dashoffset: 0; stroke-linejoin: miter; stroke-miterlimit: 4; fill: rgb(29,105,109); fill-rule: nonzero; opacity: 1;" vector-effect="non-scaling-stroke"  transform=" translate(-207.3, -175.32)" d="M 206.18 170.81 C 205.38 171.11 204.88 173.11 204.88 175.81 C 204.88 179.81 205.07999999999998 180.21 207.18 179.91 C 208.88 179.71 209.48000000000002 178.91 209.68 176.01 C 209.98000000000002 172.31 208.38 170.01 206.18 170.81 Z" stroke-linecap="round" />
</g>
		<g transform="matrix(1 0 0 1 -79.36 -54.62)"  >
<path style="stroke: none; stroke-width: 1; stroke-dasharray: none; stroke-linecap: butt; stroke-dashoffset: 0; stroke-linejoin: miter; stroke-miterlimit: 4; fill: rgb(29,105,109); fill-rule: nonzero; opacity: 1;" vector-effect="non-scaling-stroke"  transform=" translate(-221.45, -175.25)" d="M 219.88 171.61 C 219.28 172.41000000000003 218.88 174.51000000000002 219.07999999999998 176.31 C 219.27999999999997 178.81 219.88 179.71 221.67999999999998 179.91 C 223.67999999999998 180.21 223.87999999999997 179.81 223.87999999999997 175.81 C 223.87999999999997 171.01 221.97999999999996 169.11 219.87999999999997 171.61 Z" stroke-linecap="round" />
</g>
		<g transform="matrix(1 0 0 1 -0.25 46.64)"  >
<path style="stroke: none; stroke-width: 1; stroke-dasharray: none; stroke-linecap: butt; stroke-dashoffset: 0; stroke-linejoin: miter; stroke-miterlimit: 4; fill: rgb(29,105,109); fill-rule: nonzero; opacity: 1;" vector-effect="non-scaling-stroke"  transform=" translate(-300.57, -276.5)" d="M 299.08 184.31 C 298.38 185.01 297.88 186.31 297.88 187.31 C 297.88 188.31 296.08 190.21 293.78 191.61 C 291.58 193.11 288.88 195.81 287.67999999999995 197.71 C 286.5799999999999 199.61 284.67999999999995 201.31 283.47999999999996 201.51000000000002 C 282.37999999999994 201.71 278.28 202.51000000000002 274.37999999999994 203.11 C 266.5799999999999 204.51000000000002 255.97999999999993 207.51000000000002 251.17999999999995 209.71 C 249.47999999999996 210.51000000000002 247.77999999999994 211.11 247.47999999999996 211.11 C 246.47999999999996 211.11 231.67999999999995 218.51000000000002 227.27999999999997 221.11 C 213.77999999999997 229.31 194.87999999999997 247.11 185.67999999999998 260.31 C 173.48 277.71 164.98 299.41 161.87999999999997 320.81 C 160.27999999999997 331.91 160.57999999999996 367.61 162.17999999999998 369.01 C 162.98 369.61 163.87999999999997 369.81 164.17999999999998 369.40999999999997 C 164.57999999999998 369.10999999999996 164.87999999999997 360.21 164.87999999999997 349.80999999999995 C 164.87999999999997 323.7099999999999 167.07999999999996 309.90999999999997 174.17999999999998 291.60999999999996 C 186.87999999999997 259.10999999999996 213.27999999999997 231.20999999999995 244.38 217.60999999999996 C 247.68 216.10999999999996 251.28 214.50999999999996 252.38 214.00999999999996 C 259.68 210.60999999999996 276.18 207.10999999999996 289.28 206.10999999999996 C 310.97999999999996 204.60999999999996 325.78 206.40999999999997 344.88 212.80999999999995 C 382.98 225.60999999999996 415.18 257.50999999999993 428.38 295.60999999999996 C 434.08 311.90999999999997 434.88 317.90999999999997 435.58 343.90999999999997 C 436.18 367.90999999999997 436.18 368.21 438.28 367.90999999999997 C 440.37999999999994 367.60999999999996 440.38 367.30999999999995 440.28 347.10999999999996 C 440.17999999999995 320.30999999999995 437.47999999999996 305.10999999999996 429.38 285.60999999999996 C 419.28 261.21 398.48 236.60999999999996 375.88 222.40999999999997 C 357.88 211.10999999999996 344.48 206.30999999999997 318.18 201.50999999999996 C 316.88 201.20999999999995 314.78000000000003 199.30999999999997 313.38 197.10999999999996 C 311.97999999999996 194.90999999999994 309.08 192.20999999999995 306.98 191.10999999999996 C 304.08000000000004 189.70999999999995 302.98 188.40999999999997 302.68 186.40999999999997 C 302.38 183.40999999999997 300.88 182.50999999999996 299.08 184.30999999999997 Z M 306.88 197.11 C 308.58 200.21 307.28 201.11 300.78 201.11 C 296.38 201.11 294.67999999999995 200.71 294.28 199.61 C 293.17999999999995 196.91000000000003 295.88 195.11 300.97999999999996 195.11 C 304.78 195.11 306.08 195.51000000000002 306.87999999999994 197.11 Z" stroke-linecap="round" />
</g>
		<g transform="matrix(1 0 0 1 -118.01 -18.87)"  >
<path style="stroke: none; stroke-width: 1; stroke-dasharray: none; stroke-linecap: butt; stroke-dashoffset: 0; stroke-linejoin: miter; stroke-miterlimit: 4; fill: rgb(29,105,109); fill-rule: nonzero; opacity: 1;" vector-effect="non-scaling-stroke"  transform=" translate(-182.8, -211)" d="M 180.28 208.51 C 179.28 212.60999999999999 180.18 215.60999999999999 182.58 215.91 C 185.18 216.31 186.38000000000002 213.41 185.38000000000002 209.10999999999999 C 184.58 205.30999999999997 181.18000000000004 205.01 180.28000000000003 208.51 Z" stroke-linecap="round" />
</g>
		<g transform="matrix(1 0 0 1 -100.2 -18.79)"  >
<path style="stroke: none; stroke-width: 1; stroke-dasharray: none; stroke-linecap: butt; stroke-dashoffset: 0; stroke-linejoin: miter; stroke-miterlimit: 4; fill: rgb(29,105,109); fill-rule: nonzero; opacity: 1;" vector-effect="non-scaling-stroke"  transform=" translate(-200.62, -211.08)" d="M 198.38 208.41 C 197.28 212.60999999999999 198.18 215.60999999999999 200.48 215.91 C 203.07999999999998 216.31 203.88 214.51 202.98 210.01 C 202.17999999999998 205.81 199.28 204.81 198.38 208.41 Z" stroke-linecap="round" />
</g>
		<g transform="matrix(1 0 0 1 -82.2 -18.79)"  >
<path style="stroke: none; stroke-width: 1; stroke-dasharray: none; stroke-linecap: butt; stroke-dashoffset: 0; stroke-linejoin: miter; stroke-miterlimit: 4; fill: rgb(29,105,109); fill-rule: nonzero; opacity: 1;" vector-effect="non-scaling-stroke"  transform=" translate(-218.62, -211.08)" d="M 216.38 208.41 C 215.28 212.60999999999999 216.18 215.60999999999999 218.48 215.91 C 221.07999999999998 216.31 221.88 214.51 220.98 210.01 C 220.17999999999998 205.81 217.28 204.81 216.38 208.41 Z" stroke-linecap="round" />
</g>
		<g transform="matrix(1 0 0 1 -36.06 42.39)"  >
<path style="stroke: none; stroke-width: 1; stroke-dasharray: none; stroke-linecap: butt; stroke-dashoffset: 0; stroke-linejoin: miter; stroke-miterlimit: 4; fill: rgb(29,105,109); fill-rule: nonzero; opacity: 1;" vector-effect="non-scaling-stroke"  transform=" translate(-264.76, -272.27)" d="M 250.58 261.11 C 247.38000000000002 262.11 243.98000000000002 265.81 243.88000000000002 268.31 C 243.88000000000002 269.81 244.78000000000003 270.11 249.48000000000002 270.11 C 256.48 270.11 260.38 272.61 261.98 278.21000000000004 C 263.28000000000003 282.21000000000004 265.38 284.91 266.58000000000004 283.71000000000004 C 266.98 283.41 266.68000000000006 280.81000000000006 265.98 278.11 C 264.08000000000004 270.81 264.98 270.11 275.98 270.11 C 284.68 270.11 286.38 269.51 285.38 266.91 C 284.38 264.31000000000006 278.38 262.21000000000004 269.88 261.61 C 265.18 261.31 259.58 260.81 257.38 260.61 C 255.18 260.41 252.18 260.61 250.57999999999998 261.11 Z" stroke-linecap="round" />
</g>
		<g transform="matrix(1 0 0 1 2.97 83.19)"  >
<path style="stroke: none; stroke-width: 1; stroke-dasharray: none; stroke-linecap: butt; stroke-dashoffset: 0; stroke-linejoin: miter; stroke-miterlimit: 4; fill: rgb(29,105,109); fill-rule: nonzero; opacity: 1;" vector-effect="non-scaling-stroke"  transform=" translate(-303.79, -313.06)" d="M 345.68 266.6 C 342.18 268.5 340.58 271.40000000000003 339.88 277.1 C 339.28 282.1 340.18 281.90000000000003 328.88 280.1 C 316.18 278.20000000000005 290.78 281.5 270.38 287.8 C 265.48 289.3 264.98 289.8 258.38 300 C 254.57999999999998 305.8 246.57999999999998 318 240.68 327 C 234.78 336.1 229.88 344.2 229.88 345.2 C 229.88 346.09999999999997 230.48 347.4 231.18 348 C 233.08 349.5 258.18 355 263.68 355.1 C 267.48 355.1 266.28000000000003 352.3 262.18 351.6 C 260.08 351.20000000000005 257.08 350.6 255.38 350.1 C 253.78 349.70000000000005 248.88 348.5 244.57999999999998 347.5 C 240.38 346.6 236.38 345.2 235.77999999999997 344.5 C 234.97999999999996 343.5 237.37999999999997 339.2 245.47999999999996 326.9 C 251.37999999999997 317.9 257.67999999999995 308.2 259.58 305.29999999999995 C 263.28 299.59999999999997 265.28 298.19999999999993 267.68 299.69999999999993 C 269.38 300.79999999999995 270.98 305.0999999999999 277.88 327.0999999999999 C 283.98 346.5999999999999 284.48 348.0999999999999 285.88 348.0999999999999 C 286.88 348.0999999999999 287.28 346.7999999999999 286.98 344.0999999999999 C 286.88 343.2999999999999 283.38 332.0999999999999 279.28000000000003 319.2999999999999 C 275.18000000000006 306.4999999999999 271.88000000000005 294.9999999999999 272.08000000000004 293.7999999999999 C 272.48 291.1999999999999 275.58000000000004 289.9999999999999 289.28000000000003 287.0999999999999 C 311.68 282.2999999999999 331.38000000000005 282.3999999999999 336.48 287.19999999999993 C 341.38 291.79999999999995 340.48 293.79999999999995 321.68 317.19999999999993 C 291.68 354.49999999999994 290.38 355.99999999999994 288.68 356.5999999999999 C 287.68 356.9999999999999 285.28000000000003 356.69999999999993 283.38 355.9999999999999 C 279.48 354.5999999999999 277.88 355.2999999999999 279.48 357.89999999999986 C 280.68 359.6999999999999 288.28000000000003 361.4999999999999 290.88 360.4999999999999 C 292.28 359.9999999999999 300.28 350.2999999999999 330.38 312.4999999999999 C 336.98 304.1999999999999 343.28 296.7999999999999 344.28 296.0999999999999 C 345.97999999999996 294.9999999999999 346.58 295.19999999999993 348.38 297.4999999999999 C 350.58 300.2999999999999 352.88 300.89999999999986 352.88 298.7999999999999 C 352.88 298.0999999999999 351.78 295.2999999999999 350.48 292.4999999999999 C 345.08000000000004 281.1999999999999 344.58000000000004 279.6999999999999 344.58000000000004 276.89999999999986 C 344.58000000000004 271.4999999999999 347.68000000000006 269.59999999999985 357.98 269.1999999999999 C 368.68 268.7999999999999 371.48 269.39999999999986 372.38 272.1999999999999 C 373.38 275.1999999999999 369.18 280.7999999999999 364.58 282.59999999999985 C 361.88 283.6999999999999 360.88 284.6999999999999 361.08 285.89999999999986 C 361.58 288.29999999999984 365.58 287.59999999999985 369.88 284.1999999999999 C 374.38 280.6999999999999 378.08 273.6999999999999 377.68 269.09999999999985 L 377.38 265.59999999999985 L 362.88 265.39999999999986 C 351.58 265.1999999999999 347.78 265.4999999999999 345.68 266.59999999999985 Z" stroke-linecap="round" />
</g>
</g>
</g>
<g transform="matrix(0 0 NaN NaN 588.96 0)"  >
<g style=""   >
</g>
</g>
<g transform="matrix(0 0 NaN NaN 588.96 0)"  >
<g style=""   >
</g>
</g>
<g transform="matrix(0 0 NaN NaN 588.96 0)"  >
<g style=""   >
</g>
</g>
<g transform="matrix(0 0 NaN NaN 588.96 0)"  >
<g style=""   >
</g>
</g>
<g transform="matrix(0 0 NaN NaN 588.96 0)"  >
<g style=""   >
</g>
</g>
</svg>